<mxfile host="app.diagrams.net" modified="2022-03-17T13:53:07.670Z" agent="5.0 (Windows NT 10.0; Win64; x64) AppleWebKit/537.36 (KHTML, like Gecko) Chrome/99.0.4844.51 Safari/537.36" etag="ieSfeipxYjdx7H02U5_C" version="17.1.3" type="github">
  <diagram id="C5RBs43oDa-KdzZeNtuy" name="Page-1">
    <mxGraphModel dx="1695" dy="482" grid="1" gridSize="10" guides="1" tooltips="1" connect="1" arrows="1" fold="1" page="1" pageScale="1" pageWidth="827" pageHeight="1169" math="0" shadow="0">
      <root>
        <mxCell id="WIyWlLk6GJQsqaUBKTNV-0" />
        <mxCell id="WIyWlLk6GJQsqaUBKTNV-1" parent="WIyWlLk6GJQsqaUBKTNV-0" />
        <mxCell id="xVe8cGrU0Al-oUzphYk6-2" value="INICIO" style="rounded=1;whiteSpace=wrap;html=1;" vertex="1" parent="WIyWlLk6GJQsqaUBKTNV-1">
          <mxGeometry x="-30" y="40" width="110" height="50" as="geometry" />
        </mxCell>
        <mxCell id="xVe8cGrU0Al-oUzphYk6-3" value="FIM" style="rounded=1;whiteSpace=wrap;html=1;" vertex="1" parent="WIyWlLk6GJQsqaUBKTNV-1">
          <mxGeometry x="-40" y="370" width="110" height="50" as="geometry" />
        </mxCell>
        <mxCell id="xVe8cGrU0Al-oUzphYk6-4" value="X,Y" style="shape=parallelogram;perimeter=parallelogramPerimeter;whiteSpace=wrap;html=1;fixedSize=1;" vertex="1" parent="WIyWlLk6GJQsqaUBKTNV-1">
          <mxGeometry x="-40" y="120" width="110" height="50" as="geometry" />
        </mxCell>
        <mxCell id="xVe8cGrU0Al-oUzphYk6-6" value="Z = X + Y" style="rounded=0;whiteSpace=wrap;html=1;" vertex="1" parent="WIyWlLk6GJQsqaUBKTNV-1">
          <mxGeometry x="-40" y="210" width="110" height="50" as="geometry" />
        </mxCell>
        <mxCell id="xVe8cGrU0Al-oUzphYk6-19" value="" style="endArrow=classic;html=1;rounded=0;exitX=0.418;exitY=1.02;exitDx=0;exitDy=0;entryX=0.5;entryY=0;entryDx=0;entryDy=0;exitPerimeter=0;" edge="1" parent="WIyWlLk6GJQsqaUBKTNV-1" source="xVe8cGrU0Al-oUzphYk6-2" target="xVe8cGrU0Al-oUzphYk6-4">
          <mxGeometry width="50" height="50" relative="1" as="geometry">
            <mxPoint x="390" y="140" as="sourcePoint" />
            <mxPoint x="380" y="200" as="targetPoint" />
          </mxGeometry>
        </mxCell>
        <mxCell id="xVe8cGrU0Al-oUzphYk6-20" value="" style="endArrow=classic;html=1;rounded=0;exitX=0.5;exitY=1;exitDx=0;exitDy=0;entryX=0.5;entryY=0;entryDx=0;entryDy=0;" edge="1" parent="WIyWlLk6GJQsqaUBKTNV-1" source="xVe8cGrU0Al-oUzphYk6-4" target="xVe8cGrU0Al-oUzphYk6-6">
          <mxGeometry width="50" height="50" relative="1" as="geometry">
            <mxPoint x="395" y="180" as="sourcePoint" />
            <mxPoint x="394.5" y="200" as="targetPoint" />
          </mxGeometry>
        </mxCell>
        <mxCell id="xVe8cGrU0Al-oUzphYk6-25" value="Z" style="shape=document;whiteSpace=wrap;html=1;boundedLbl=1;" vertex="1" parent="WIyWlLk6GJQsqaUBKTNV-1">
          <mxGeometry x="-40" y="290" width="110" height="50" as="geometry" />
        </mxCell>
        <mxCell id="xVe8cGrU0Al-oUzphYk6-26" value="" style="endArrow=classic;html=1;rounded=0;exitX=0.5;exitY=1;exitDx=0;exitDy=0;" edge="1" parent="WIyWlLk6GJQsqaUBKTNV-1" source="xVe8cGrU0Al-oUzphYk6-6" target="xVe8cGrU0Al-oUzphYk6-25">
          <mxGeometry width="50" height="50" relative="1" as="geometry">
            <mxPoint x="290" y="310" as="sourcePoint" />
            <mxPoint x="340" y="260" as="targetPoint" />
          </mxGeometry>
        </mxCell>
        <mxCell id="xVe8cGrU0Al-oUzphYk6-27" value="" style="endArrow=classic;html=1;rounded=0;exitX=0.509;exitY=0.82;exitDx=0;exitDy=0;exitPerimeter=0;entryX=0.5;entryY=0;entryDx=0;entryDy=0;" edge="1" parent="WIyWlLk6GJQsqaUBKTNV-1" source="xVe8cGrU0Al-oUzphYk6-25" target="xVe8cGrU0Al-oUzphYk6-3">
          <mxGeometry width="50" height="50" relative="1" as="geometry">
            <mxPoint x="210" y="240" as="sourcePoint" />
            <mxPoint x="390" y="390" as="targetPoint" />
            <Array as="points" />
          </mxGeometry>
        </mxCell>
        <mxCell id="xVe8cGrU0Al-oUzphYk6-29" value="INICIO" style="rounded=1;whiteSpace=wrap;html=1;" vertex="1" parent="WIyWlLk6GJQsqaUBKTNV-1">
          <mxGeometry x="180" y="40" width="110" height="60" as="geometry" />
        </mxCell>
        <mxCell id="xVe8cGrU0Al-oUzphYk6-30" value="FIM" style="rounded=1;whiteSpace=wrap;html=1;" vertex="1" parent="WIyWlLk6GJQsqaUBKTNV-1">
          <mxGeometry x="190" y="380" width="110" height="50" as="geometry" />
        </mxCell>
        <mxCell id="xVe8cGrU0Al-oUzphYk6-31" value="X,Y" style="shape=parallelogram;perimeter=parallelogramPerimeter;whiteSpace=wrap;html=1;fixedSize=1;" vertex="1" parent="WIyWlLk6GJQsqaUBKTNV-1">
          <mxGeometry x="180" y="120" width="110" height="50" as="geometry" />
        </mxCell>
        <mxCell id="xVe8cGrU0Al-oUzphYk6-34" value="X&amp;gt;Y" style="rhombus;whiteSpace=wrap;html=1;" vertex="1" parent="WIyWlLk6GJQsqaUBKTNV-1">
          <mxGeometry x="195" y="210" width="80" height="80" as="geometry" />
        </mxCell>
        <mxCell id="xVe8cGrU0Al-oUzphYk6-35" value="" style="endArrow=classic;html=1;rounded=0;entryX=0.5;entryY=0;entryDx=0;entryDy=0;exitX=0.5;exitY=1;exitDx=0;exitDy=0;" edge="1" parent="WIyWlLk6GJQsqaUBKTNV-1" source="xVe8cGrU0Al-oUzphYk6-29" target="xVe8cGrU0Al-oUzphYk6-31">
          <mxGeometry width="50" height="50" relative="1" as="geometry">
            <mxPoint x="230" y="110" as="sourcePoint" />
            <mxPoint x="280" y="60" as="targetPoint" />
          </mxGeometry>
        </mxCell>
        <mxCell id="xVe8cGrU0Al-oUzphYk6-36" value="" style="endArrow=classic;html=1;rounded=0;entryX=0.5;entryY=0;entryDx=0;entryDy=0;exitX=0.5;exitY=1;exitDx=0;exitDy=0;" edge="1" parent="WIyWlLk6GJQsqaUBKTNV-1" source="xVe8cGrU0Al-oUzphYk6-31" target="xVe8cGrU0Al-oUzphYk6-34">
          <mxGeometry width="50" height="50" relative="1" as="geometry">
            <mxPoint x="240" y="220" as="sourcePoint" />
            <mxPoint x="375" y="220" as="targetPoint" />
          </mxGeometry>
        </mxCell>
        <mxCell id="xVe8cGrU0Al-oUzphYk6-42" value="VERDADEIRO" style="endArrow=classic;html=1;rounded=0;exitX=0;exitY=0.5;exitDx=0;exitDy=0;entryX=0.445;entryY=-0.04;entryDx=0;entryDy=0;entryPerimeter=0;" edge="1" parent="WIyWlLk6GJQsqaUBKTNV-1" source="xVe8cGrU0Al-oUzphYk6-34" target="xVe8cGrU0Al-oUzphYk6-47">
          <mxGeometry x="0.4108" y="6" width="50" height="50" relative="1" as="geometry">
            <mxPoint x="300" y="330" as="sourcePoint" />
            <mxPoint x="260" y="268" as="targetPoint" />
            <Array as="points">
              <mxPoint x="134" y="250" />
            </Array>
            <mxPoint as="offset" />
          </mxGeometry>
        </mxCell>
        <mxCell id="xVe8cGrU0Al-oUzphYk6-44" value="FALSO" style="endArrow=classic;html=1;rounded=0;exitX=1;exitY=0.5;exitDx=0;exitDy=0;entryX=0.5;entryY=0;entryDx=0;entryDy=0;" edge="1" parent="WIyWlLk6GJQsqaUBKTNV-1" source="xVe8cGrU0Al-oUzphYk6-34" target="xVe8cGrU0Al-oUzphYk6-48">
          <mxGeometry x="0.4805" width="50" height="50" relative="1" as="geometry">
            <mxPoint x="420" y="290" as="sourcePoint" />
            <mxPoint x="460" y="265" as="targetPoint" />
            <Array as="points">
              <mxPoint x="355" y="250" />
            </Array>
            <mxPoint as="offset" />
          </mxGeometry>
        </mxCell>
        <mxCell id="xVe8cGrU0Al-oUzphYk6-47" value="X" style="shape=document;whiteSpace=wrap;html=1;boundedLbl=1;" vertex="1" parent="WIyWlLk6GJQsqaUBKTNV-1">
          <mxGeometry x="85" y="320" width="110" height="50" as="geometry" />
        </mxCell>
        <mxCell id="xVe8cGrU0Al-oUzphYk6-48" value="Y" style="shape=document;whiteSpace=wrap;html=1;boundedLbl=1;" vertex="1" parent="WIyWlLk6GJQsqaUBKTNV-1">
          <mxGeometry x="300" y="320" width="110" height="50" as="geometry" />
        </mxCell>
        <mxCell id="xVe8cGrU0Al-oUzphYk6-51" value="" style="endArrow=classic;html=1;rounded=0;exitX=0.482;exitY=0.92;exitDx=0;exitDy=0;exitPerimeter=0;entryX=0;entryY=0.5;entryDx=0;entryDy=0;" edge="1" parent="WIyWlLk6GJQsqaUBKTNV-1" source="xVe8cGrU0Al-oUzphYk6-47" target="xVe8cGrU0Al-oUzphYk6-30">
          <mxGeometry width="50" height="50" relative="1" as="geometry">
            <mxPoint x="370" y="300" as="sourcePoint" />
            <mxPoint x="420" y="250" as="targetPoint" />
            <Array as="points">
              <mxPoint x="138" y="405" />
            </Array>
          </mxGeometry>
        </mxCell>
        <mxCell id="xVe8cGrU0Al-oUzphYk6-52" value="" style="endArrow=classic;html=1;rounded=0;exitX=0.5;exitY=0.9;exitDx=0;exitDy=0;exitPerimeter=0;entryX=1;entryY=0.5;entryDx=0;entryDy=0;" edge="1" parent="WIyWlLk6GJQsqaUBKTNV-1" source="xVe8cGrU0Al-oUzphYk6-48" target="xVe8cGrU0Al-oUzphYk6-30">
          <mxGeometry width="50" height="50" relative="1" as="geometry">
            <mxPoint x="540" y="460" as="sourcePoint" />
            <mxPoint x="590" y="410" as="targetPoint" />
            <Array as="points">
              <mxPoint x="355" y="405" />
            </Array>
          </mxGeometry>
        </mxCell>
        <mxCell id="xVe8cGrU0Al-oUzphYk6-54" value="INICIO" style="rounded=1;whiteSpace=wrap;html=1;" vertex="1" parent="WIyWlLk6GJQsqaUBKTNV-1">
          <mxGeometry x="530" y="50" width="110" height="50" as="geometry" />
        </mxCell>
        <mxCell id="xVe8cGrU0Al-oUzphYk6-55" value="FIM" style="rounded=1;whiteSpace=wrap;html=1;" vertex="1" parent="WIyWlLk6GJQsqaUBKTNV-1">
          <mxGeometry x="670" y="50" width="110" height="50" as="geometry" />
        </mxCell>
        <mxCell id="xVe8cGrU0Al-oUzphYk6-56" value="ENTRADA" style="shape=parallelogram;perimeter=parallelogramPerimeter;whiteSpace=wrap;html=1;fixedSize=1;" vertex="1" parent="WIyWlLk6GJQsqaUBKTNV-1">
          <mxGeometry x="530" y="120" width="110" height="50" as="geometry" />
        </mxCell>
        <mxCell id="xVe8cGrU0Al-oUzphYk6-57" value="SAIDA" style="shape=document;whiteSpace=wrap;html=1;boundedLbl=1;" vertex="1" parent="WIyWlLk6GJQsqaUBKTNV-1">
          <mxGeometry x="670" y="120" width="110" height="50" as="geometry" />
        </mxCell>
        <mxCell id="xVe8cGrU0Al-oUzphYk6-58" value="PROCESSAMENTO" style="rounded=0;whiteSpace=wrap;html=1;" vertex="1" parent="WIyWlLk6GJQsqaUBKTNV-1">
          <mxGeometry x="540" y="190" width="110" height="50" as="geometry" />
        </mxCell>
        <mxCell id="xVe8cGrU0Al-oUzphYk6-59" value="X=5&lt;br&gt;Y=3" style="text;html=1;strokeColor=none;fillColor=none;align=center;verticalAlign=middle;whiteSpace=wrap;rounded=0;" vertex="1" parent="WIyWlLk6GJQsqaUBKTNV-1">
          <mxGeometry x="290" y="180" width="60" height="30" as="geometry" />
        </mxCell>
      </root>
    </mxGraphModel>
  </diagram>
</mxfile>
